<?xml version="1.0" standalone="no"?><!DOCTYPE svg PUBLIC "-//W3C//DTD SVG 1.1//EN" "http://www.w3.org/Graphics/SVG/1.1/DTD/svg11.dtd"><svg t="1631347161354" class="icon" viewBox="0 0 1024 1024" version="1.1" xmlns="http://www.w3.org/2000/svg" p-id="3517" xmlns:xlink="http://www.w3.org/1999/xlink" width="260" height="260"><defs><style type="text/css"></style></defs><path d="M514.048 337.715a32 32 0 0 1-32-32V135.168a32 32 0 1 1 64 0v170.534a32 32 0 0 1-32 32z m-1.28 581.799a32 32 0 0 1-32-32V714.406a32 32 0 1 1 64 0v173.095a32 32 0 0 1-32 32zM305.011 543.347H135.744a32 32 0 0 1 0-64h169.267a32 32 0 0 1 0 64z m583.079 0H713.83a32 32 0 0 1 0-64h174.26a32 32 0 1 1 0 64zM245.978 806.4a32 32 0 0 1-22.656-54.669L342.643 632.32a32 32 0 0 1 45.325 45.325L268.646 796.979a31.898 31.898 0 0 1-22.668 9.344z m408.435-408.5a32 32 0 0 1-22.656-54.68l123.558-123.56a32 32 0 1 1 45.325 45.3L677.12 388.544a31.898 31.898 0 0 1-22.669 9.357z m121.523 411.06a31.885 31.885 0 0 1-22.669-9.344l-122.15-122.15a32 32 0 1 1 45.325-45.325l122.15 122.15a32 32 0 0 1-22.656 54.669zM364.672 397.632a31.923 31.923 0 0 1-22.669-9.344L221.273 267.52a32 32 0 1 1 45.325-45.325l120.73 120.743a32 32 0 0 1-22.656 54.668z m0 0" p-id="3518" fill="#ffffff"></path></svg>